<svg width="25" height="20" viewBox="0 0 25 20" fill="none" xmlns="http://www.w3.org/2000/svg">
<rect width="25" height="20" rx="2" fill="#F3C04F"/>
<path d="M5.63991 15L6.3956 12.6783H10.0696L10.8253 15H13.1321L9.62216 4.81818H6.84801L3.3331 15H5.63991ZM6.94247 10.9979L8.19531 7.14489H8.27486L9.5277 10.9979H6.94247ZM16.7763 15.1243C18.0092 15.1243 18.6506 14.4134 18.9439 13.777H19.0334V15H21.1214V4.81818H19.0085V8.64631H18.9439C18.6605 8.02486 18.049 7.2642 16.7713 7.2642C15.0959 7.2642 13.679 8.56676 13.679 11.1918C13.679 13.7472 15.0362 15.1243 16.7763 15.1243ZM17.4474 13.4389C16.4084 13.4389 15.8416 12.5142 15.8416 11.1818C15.8416 9.85938 16.3984 8.94957 17.4474 8.94957C18.4766 8.94957 19.0533 9.8196 19.0533 11.1818C19.0533 12.544 18.4666 13.4389 17.4474 13.4389Z" fill="#FFFFFE"/>
</svg>
