<svg width="26" height="26" viewBox="0 0 26 26" fill="none" xmlns="http://www.w3.org/2000/svg">
<g clip-path="url(#clip0)">
<path d="M14.5383 22.0347C14.3561 22.334 14.0985 22.5801 13.7912 22.7485C13.484 22.9169 13.1378 23.0016 12.7875 22.9942C12.4372 22.9867 12.0951 22.8874 11.7952 22.7061C11.4954 22.5248 11.2484 22.2679 11.0791 21.9612M22.8915 18.2114L2.89601 17.7863C3.69148 17.8032 4.46109 17.5034 5.03553 16.9529C5.60997 16.4024 5.94219 15.6462 5.9591 14.8507L6.06538 9.85186C6.10484 7.99576 6.88001 6.23136 8.22038 4.94681C9.56074 3.66225 11.3565 2.96277 13.2126 3.00223C15.0687 3.04169 16.8331 3.81687 18.1176 5.15723C19.4022 6.49759 20.1017 8.29334 20.0622 10.1494L19.9559 15.1483C19.939 15.9438 20.2388 16.7134 20.7893 17.2878C21.3398 17.8623 22.096 18.1945 22.8915 18.2114Z" stroke="#606060" stroke-width="2" stroke-linecap="round" stroke-linejoin="round"/>
</g>
<defs>
<clipPath id="clip0">
<rect width="24" height="24" fill="white" transform="translate(1.25781 0.74762) rotate(1.21795)"/>
</clipPath>
</defs>
</svg>
