<svg width="90" height="27" viewBox="0 0 90 27" fill="none" xmlns="http://www.w3.org/2000/svg">
<path d="M33.6975 7.0915C33.3735 5.8765 32.415 4.918 31.1955 4.5895C28.9905 4 20.1435 4 20.1435 4C20.1435 4 11.301 4 9.0915 4.5895C7.8765 4.9135 6.918 5.872 6.5895 7.0915C6 9.2965 6 13.9001 6 13.9001C6 13.9001 6 18.5036 6.5895 20.7086C6.9135 21.9236 7.872 22.8819 9.0915 23.2104C11.301 23.7999 20.1435 23.7999 20.1435 23.7999C20.1435 23.7999 28.9905 23.7999 31.1955 23.2104C32.4105 22.8864 33.369 21.9281 33.6975 20.7086C34.287 18.5036 34.287 13.9001 34.287 13.9001C34.287 13.9001 34.287 9.2965 33.6975 7.0915Z" fill="#FF0000"/>
<path d="M11.9702 17.7435L19.3187 13.5L11.9702 9.25653V17.7435Z" fill="white"/>
<path d="M84.6724 16.7085V17.334C84.6724 18.1305 84.6949 18.7245 84.7444 19.125C84.7894 19.521 84.8884 19.8135 85.0369 19.9935C85.1854 20.1735 85.4149 20.268 85.7254 20.268C86.1439 20.268 86.4319 20.106 86.5849 19.782C86.7379 19.458 86.8234 18.918 86.8369 18.162L89.2444 18.3015C89.2579 18.4095 89.2624 18.558 89.2624 18.747C89.2624 19.8945 88.9474 20.7495 88.3219 21.3165C87.6964 21.8835 86.8099 22.167 85.6624 22.167C84.2854 22.167 83.3224 21.735 82.7689 20.871C82.2154 20.007 81.9409 18.675 81.9409 16.866V14.7015C81.9409 12.8385 82.2289 11.484 82.8004 10.6245C83.3719 9.76945 84.3529 9.34195 85.7434 9.34195C86.7019 9.34195 87.4354 9.51745 87.9484 9.86845C88.4614 10.2195 88.8214 10.7639 89.0329 11.5065C89.2399 12.249 89.3479 13.275 89.3479 14.58V16.704H84.6724V16.7085ZM85.0279 11.4885C84.8884 11.664 84.7939 11.952 84.7444 12.348C84.6949 12.744 84.6724 13.3515 84.6724 14.157V15.048H86.7154V14.157C86.7154 13.3605 86.6884 12.7575 86.6344 12.348C86.5804 11.9385 86.4814 11.646 86.3419 11.4795C86.2024 11.313 85.9819 11.2275 85.6849 11.2275C85.3879 11.223 85.1674 11.313 85.0279 11.4885Z" fill="black"/>
<path d="M52.5814 16.467V17.1011C52.5814 17.9084 52.6027 18.5105 52.6495 18.9165C52.692 19.3179 52.7855 19.6144 52.9259 19.7968C53.0662 19.9793 53.2831 20.0751 53.5766 20.0751C53.9721 20.0751 54.2442 19.9109 54.3888 19.5825C54.5334 19.254 54.6142 18.7067 54.627 17.9404L56.9022 18.0818C56.915 18.1912 56.9192 18.3418 56.9192 18.5333C56.9192 19.6965 56.6215 20.5632 56.0304 21.1379C55.4393 21.7126 54.6015 22 53.517 22C52.2157 22 51.3056 21.5621 50.7825 20.6863C50.2594 19.8105 50 18.4604 50 16.6267V14.4327C50 12.5442 50.2722 11.1713 50.8123 10.3C51.3524 9.43333 52.2795 9 53.5936 9C54.4994 9 55.1926 9.17789 55.6774 9.53368C56.1622 9.88947 56.5024 10.4414 56.7023 11.1941C56.8979 11.9467 57 12.9867 57 14.3095V16.4625H52.5814V16.467ZM52.9174 11.1758C52.7855 11.3537 52.6962 11.6457 52.6495 12.0471C52.6027 12.4485 52.5814 13.0642 52.5814 13.8807V14.7839H54.5122V13.8807C54.5122 13.0734 54.4866 12.4621 54.4356 12.0471C54.3846 11.632 54.291 11.3355 54.1592 11.1667C54.0273 10.9979 53.819 10.9112 53.5383 10.9112C53.2576 10.9067 53.0492 10.9979 52.9174 11.1758Z" fill="black"/>
<path d="M71.2216 9.57595V21.9735H69.0391L68.7961 20.457H68.7376C68.1436 21.6045 67.2526 22.176 66.0691 22.176C65.2456 22.176 64.6381 21.906 64.2466 21.366C63.8551 20.826 63.6616 19.9845 63.6616 18.837V9.57595H66.4516V18.6795C66.4516 19.233 66.5101 19.629 66.6316 19.863C66.7531 20.097 66.9556 20.2185 67.2391 20.2185C67.4821 20.2185 67.7161 20.1465 67.9366 19.998C68.1571 19.8495 68.3236 19.6605 68.4316 19.431V9.57595H71.2216Z" fill="black"/>
<path d="M64.4899 7.24922H61.7179V21.9733H58.9864V7.24922H56.2144V5.00372H64.4854V7.24922H64.4899Z" fill="black"/>
<path d="M80.4603 11.5603C80.2893 10.7773 80.0193 10.2103 79.6413 9.85933C79.2633 9.50833 78.7458 9.33283 78.0843 9.33283C77.5713 9.33283 77.0943 9.47683 76.6488 9.76933C76.2033 10.0573 75.8613 10.4398 75.6183 10.9123H75.5958V4.37833H72.9048V21.9778H75.2088L75.4923 20.8033H75.5508C75.7668 21.2218 76.0908 21.5503 76.5228 21.7933C76.9548 22.0363 77.4318 22.1578 77.9583 22.1578C78.9033 22.1578 79.5963 21.7213 80.0418 20.8528C80.4873 19.9843 80.7078 18.6253 80.7078 16.7758V14.8138C80.7123 13.4278 80.6268 12.3433 80.4603 11.5603ZM77.8998 16.6183C77.8998 17.5228 77.8638 18.2293 77.7873 18.7423C77.7153 19.2553 77.5893 19.6198 77.4138 19.8358C77.2383 20.0518 77.0043 20.1598 76.7073 20.1598C76.4778 20.1598 76.2663 20.1058 76.0683 19.9978C75.8748 19.8898 75.7128 19.7278 75.5913 19.5118V12.4693C75.6858 12.1318 75.8478 11.8573 76.0773 11.6413C76.3068 11.4253 76.5543 11.3173 76.8243 11.3173C77.1078 11.3173 77.3283 11.4298 77.4813 11.6503C77.6343 11.8708 77.7423 12.2488 77.8053 12.7708C77.8638 13.2973 77.8953 14.0443 77.8953 15.0163V16.6183H77.8998Z" fill="black"/>
<path d="M45.0317 5.394L43.0077 15.1H42.9617L40.9377 5.394H37.1887V22H39.6727V9.028H39.7187L42.2947 22H43.6747L46.2507 9.028H46.2967V22H48.7807V5.394H45.0317Z" fill="black"/>
</svg>
