<svg width="74" height="43" viewBox="0 0 74 43" fill="none" xmlns="http://www.w3.org/2000/svg">
<path d="M35 9V4C35 3.44772 35.4477 3 36 3H45C45.5523 3 46 3.44772 46 4V11C46 11.5523 45.5523 12 45 12H28M46 6H35M29 20H41C41.5523 20 42 19.5523 42 19V10C42 9.44772 41.5523 9 41 9H29C28.4477 9 28 9.44771 28 10V19C28 19.5523 28.4477 20 29 20Z" stroke="#606060" stroke-width="2" stroke-linecap="round" stroke-linejoin="round"/>
<path d="M5.33594 37.8027C5.33594 37.4277 5.20312 37.1387 4.9375 36.9355C4.67578 36.7324 4.20117 36.5273 3.51367 36.3203C2.82617 36.1133 2.2793 35.8828 1.87305 35.6289C1.0957 35.1406 0.707031 34.5039 0.707031 33.7188C0.707031 33.0312 0.986328 32.4648 1.54492 32.0195C2.10742 31.5742 2.83594 31.3516 3.73047 31.3516C4.32422 31.3516 4.85352 31.4609 5.31836 31.6797C5.7832 31.8984 6.14844 32.2109 6.41406 32.6172C6.67969 33.0195 6.8125 33.4668 6.8125 33.959H5.33594C5.33594 33.5137 5.19531 33.166 4.91406 32.916C4.63672 32.6621 4.23828 32.5352 3.71875 32.5352C3.23438 32.5352 2.85742 32.6387 2.58789 32.8457C2.32227 33.0527 2.18945 33.3418 2.18945 33.7129C2.18945 34.0254 2.33398 34.2871 2.62305 34.498C2.91211 34.7051 3.38867 34.9082 4.05273 35.1074C4.7168 35.3027 5.25 35.5273 5.65234 35.7812C6.05469 36.0312 6.34961 36.3203 6.53711 36.6484C6.72461 36.9727 6.81836 37.3535 6.81836 37.791C6.81836 38.502 6.54492 39.0684 5.99805 39.4902C5.45508 39.9082 4.7168 40.1172 3.7832 40.1172C3.16602 40.1172 2.59766 40.0039 2.07812 39.7773C1.5625 39.5469 1.16016 39.2305 0.871094 38.8281C0.585938 38.4258 0.443359 37.957 0.443359 37.4219H1.92578C1.92578 37.9062 2.08594 38.2812 2.40625 38.5469C2.72656 38.8125 3.18555 38.9453 3.7832 38.9453C4.29883 38.9453 4.68555 38.8418 4.94336 38.6348C5.20508 38.4238 5.33594 38.1465 5.33594 37.8027ZM11.8223 39.3789C11.4043 39.8711 10.8105 40.1172 10.041 40.1172C9.35352 40.1172 8.83203 39.916 8.47656 39.5137C8.125 39.1113 7.94922 38.5293 7.94922 37.7676V33.6602H9.37305V37.75C9.37305 38.5547 9.70703 38.957 10.375 38.957C11.0664 38.957 11.5332 38.709 11.7754 38.2129V33.6602H13.1992V40H11.8574L11.8223 39.3789ZM20.2129 36.8945C20.2129 37.8789 19.9922 38.6621 19.5508 39.2441C19.1133 39.8262 18.5098 40.1172 17.7402 40.1172C16.998 40.1172 16.4199 39.8496 16.0059 39.3145L15.9355 40H14.6465V31H16.0703V34.2695C16.4805 33.7852 17.0332 33.543 17.7285 33.543C18.502 33.543 19.1094 33.8301 19.5508 34.4043C19.9922 34.9785 20.2129 35.7812 20.2129 36.8125V36.8945ZM18.7891 36.7715C18.7891 36.084 18.668 35.5684 18.4258 35.2246C18.1836 34.8809 17.832 34.709 17.3711 34.709C16.7539 34.709 16.3203 34.9785 16.0703 35.5176V38.1309C16.3242 38.6816 16.7617 38.957 17.3828 38.957C17.8281 38.957 18.1719 38.791 18.4141 38.459C18.6562 38.127 18.7812 37.625 18.7891 36.9531V36.7715ZM24.9648 38.2773C24.9648 38.0234 24.8594 37.8301 24.6484 37.6973C24.4414 37.5645 24.0957 37.4473 23.6113 37.3457C23.127 37.2441 22.7227 37.1152 22.3984 36.959C21.6875 36.6152 21.332 36.1172 21.332 35.4648C21.332 34.918 21.5625 34.4609 22.0234 34.0938C22.4844 33.7266 23.0703 33.543 23.7812 33.543C24.5391 33.543 25.1504 33.7305 25.6152 34.1055C26.084 34.4805 26.3184 34.9668 26.3184 35.5645H24.8945C24.8945 35.291 24.793 35.0645 24.5898 34.8848C24.3867 34.7012 24.1172 34.6094 23.7812 34.6094C23.4688 34.6094 23.2129 34.6816 23.0137 34.8262C22.8184 34.9707 22.7207 35.1641 22.7207 35.4062C22.7207 35.625 22.8125 35.7949 22.9961 35.916C23.1797 36.0371 23.5508 36.1602 24.1094 36.2852C24.668 36.4062 25.1055 36.5527 25.4219 36.7246C25.7422 36.8926 25.9785 37.0957 26.1309 37.334C26.2871 37.5723 26.3652 37.8613 26.3652 38.2012C26.3652 38.7715 26.1289 39.2344 25.6562 39.5898C25.1836 39.9414 24.5645 40.1172 23.7988 40.1172C23.2793 40.1172 22.8164 40.0234 22.4102 39.8359C22.0039 39.6484 21.6875 39.3906 21.4609 39.0625C21.2344 38.7344 21.1211 38.3809 21.1211 38.002H22.5039C22.5234 38.3379 22.6504 38.5977 22.8848 38.7812C23.1191 38.9609 23.4297 39.0508 23.8164 39.0508C24.1914 39.0508 24.4766 38.9805 24.6719 38.8398C24.8672 38.6953 24.9648 38.5078 24.9648 38.2773ZM30.2148 38.9805C30.5703 38.9805 30.8652 38.877 31.0996 38.6699C31.334 38.4629 31.459 38.207 31.4746 37.9023H32.8164C32.8008 38.2969 32.6777 38.666 32.4473 39.0098C32.2168 39.3496 31.9043 39.6191 31.5098 39.8184C31.1152 40.0176 30.6895 40.1172 30.2324 40.1172C29.3457 40.1172 28.6426 39.8301 28.123 39.2559C27.6035 38.6816 27.3438 37.8887 27.3438 36.877V36.7305C27.3438 35.7656 27.6016 34.9941 28.1172 34.416C28.6328 33.834 29.3359 33.543 30.2266 33.543C30.9805 33.543 31.5938 33.7637 32.0664 34.2051C32.543 34.6426 32.793 35.2188 32.8164 35.9336H31.4746C31.459 35.5703 31.334 35.2715 31.0996 35.0371C30.8691 34.8027 30.5742 34.6855 30.2148 34.6855C29.7539 34.6855 29.3984 34.8535 29.1484 35.1895C28.8984 35.5215 28.7715 36.0273 28.7676 36.707V36.9355C28.7676 37.623 28.8906 38.1367 29.1367 38.4766C29.3867 38.8125 29.7461 38.9805 30.2148 38.9805ZM37.2109 34.9609C37.0234 34.9297 36.8301 34.9141 36.6309 34.9141C35.9785 34.9141 35.5391 35.1641 35.3125 35.6641V40H33.8887V33.6602H35.248L35.2832 34.3691C35.627 33.8184 36.1035 33.543 36.7129 33.543C36.916 33.543 37.084 33.5703 37.2168 33.625L37.2109 34.9609ZM39.625 40H38.2012V33.6602H39.625V40ZM38.1133 32.0137C38.1133 31.7949 38.1816 31.6133 38.3184 31.4688C38.459 31.3242 38.6582 31.252 38.916 31.252C39.1738 31.252 39.373 31.3242 39.5137 31.4688C39.6543 31.6133 39.7246 31.7949 39.7246 32.0137C39.7246 32.2285 39.6543 32.4082 39.5137 32.5527C39.373 32.6934 39.1738 32.7637 38.916 32.7637C38.6582 32.7637 38.459 32.6934 38.3184 32.5527C38.1816 32.4082 38.1133 32.2285 38.1133 32.0137ZM46.7324 36.8945C46.7324 37.875 46.5098 38.6582 46.0645 39.2441C45.6191 39.8262 45.0215 40.1172 44.2715 40.1172C43.5762 40.1172 43.0195 39.8887 42.6016 39.4316V42.4375H41.1777V33.6602H42.4902L42.5488 34.3047C42.9668 33.7969 43.5352 33.543 44.2539 33.543C45.0273 33.543 45.6328 33.832 46.0703 34.4102C46.5117 34.9844 46.7324 35.7832 46.7324 36.8066V36.8945ZM45.3145 36.7715C45.3145 36.1387 45.1875 35.6367 44.9336 35.2656C44.6836 34.8945 44.3242 34.709 43.8555 34.709C43.2734 34.709 42.8555 34.9492 42.6016 35.4297V38.2422C42.8594 38.7344 43.2812 38.9805 43.8672 38.9805C44.3203 38.9805 44.6738 38.7988 44.9277 38.4355C45.1855 38.0684 45.3145 37.5137 45.3145 36.7715ZM49.7266 32.1191V33.6602H50.8457V34.7148H49.7266V38.2539C49.7266 38.4961 49.7734 38.6719 49.8672 38.7812C49.9648 38.8867 50.1367 38.9395 50.3828 38.9395C50.5469 38.9395 50.7129 38.9199 50.8809 38.8809V39.9824C50.5566 40.0723 50.2441 40.1172 49.9434 40.1172C48.8496 40.1172 48.3027 39.5137 48.3027 38.3066V34.7148H47.2598V33.6602H48.3027V32.1191H49.7266ZM53.4531 40H52.0293V33.6602H53.4531V40ZM51.9414 32.0137C51.9414 31.7949 52.0098 31.6133 52.1465 31.4688C52.2871 31.3242 52.4863 31.252 52.7441 31.252C53.002 31.252 53.2012 31.3242 53.3418 31.4688C53.4824 31.6133 53.5527 31.7949 53.5527 32.0137C53.5527 32.2285 53.4824 32.4082 53.3418 32.5527C53.2012 32.6934 53.002 32.7637 52.7441 32.7637C52.4863 32.7637 52.2871 32.6934 52.1465 32.5527C52.0098 32.4082 51.9414 32.2285 51.9414 32.0137ZM54.7422 36.7715C54.7422 36.1504 54.8652 35.5918 55.1113 35.0957C55.3574 34.5957 55.7031 34.2129 56.1484 33.9473C56.5938 33.6777 57.1055 33.543 57.6836 33.543C58.5391 33.543 59.2324 33.8184 59.7637 34.3691C60.2988 34.9199 60.5879 35.6504 60.6309 36.5605L60.6367 36.8945C60.6367 37.5195 60.5156 38.0781 60.2734 38.5703C60.0352 39.0625 59.6914 39.4434 59.2422 39.7129C58.7969 39.9824 58.2812 40.1172 57.6953 40.1172C56.8008 40.1172 56.084 39.8203 55.5449 39.2266C55.0098 38.6289 54.7422 37.834 54.7422 36.8418V36.7715ZM56.166 36.8945C56.166 37.5469 56.3008 38.0586 56.5703 38.4297C56.8398 38.7969 57.2148 38.9805 57.6953 38.9805C58.1758 38.9805 58.5488 38.793 58.8145 38.418C59.084 38.043 59.2188 37.4941 59.2188 36.7715C59.2188 36.1309 59.0801 35.623 58.8027 35.248C58.5293 34.873 58.1562 34.6855 57.6836 34.6855C57.2188 34.6855 56.8496 34.8711 56.5762 35.2422C56.3027 35.6094 56.166 36.1602 56.166 36.8945ZM63.1621 33.6602L63.2031 34.3926C63.6719 33.8262 64.2871 33.543 65.0488 33.543C66.3691 33.543 67.041 34.2988 67.0645 35.8105V40H65.6406V35.8926C65.6406 35.4902 65.5527 35.1934 65.377 35.002C65.2051 34.8066 64.9219 34.709 64.5273 34.709C63.9531 34.709 63.5254 34.9688 63.2441 35.4883V40H61.8203V33.6602H63.1621ZM72.0742 38.2773C72.0742 38.0234 71.9688 37.8301 71.7578 37.6973C71.5508 37.5645 71.2051 37.4473 70.7207 37.3457C70.2363 37.2441 69.832 37.1152 69.5078 36.959C68.7969 36.6152 68.4414 36.1172 68.4414 35.4648C68.4414 34.918 68.6719 34.4609 69.1328 34.0938C69.5938 33.7266 70.1797 33.543 70.8906 33.543C71.6484 33.543 72.2598 33.7305 72.7246 34.1055C73.1934 34.4805 73.4277 34.9668 73.4277 35.5645H72.0039C72.0039 35.291 71.9023 35.0645 71.6992 34.8848C71.4961 34.7012 71.2266 34.6094 70.8906 34.6094C70.5781 34.6094 70.3223 34.6816 70.123 34.8262C69.9277 34.9707 69.8301 35.1641 69.8301 35.4062C69.8301 35.625 69.9219 35.7949 70.1055 35.916C70.2891 36.0371 70.6602 36.1602 71.2188 36.2852C71.7773 36.4062 72.2148 36.5527 72.5312 36.7246C72.8516 36.8926 73.0879 37.0957 73.2402 37.334C73.3965 37.5723 73.4746 37.8613 73.4746 38.2012C73.4746 38.7715 73.2383 39.2344 72.7656 39.5898C72.293 39.9414 71.6738 40.1172 70.9082 40.1172C70.3887 40.1172 69.9258 40.0234 69.5195 39.8359C69.1133 39.6484 68.7969 39.3906 68.5703 39.0625C68.3438 38.7344 68.2305 38.3809 68.2305 38.002H69.6133C69.6328 38.3379 69.7598 38.5977 69.9941 38.7812C70.2285 38.9609 70.5391 39.0508 70.9258 39.0508C71.3008 39.0508 71.5859 38.9805 71.7812 38.8398C71.9766 38.6953 72.0742 38.5078 72.0742 38.2773Z" fill="#606060"/>
</svg>
