<svg width="33" height="43" viewBox="0 0 33 43" fill="none" xmlns="http://www.w3.org/2000/svg">
<path d="M7 9L16 2L25 9V20C25 20.5304 24.7893 21.0391 24.4142 21.4142C24.0391 21.7893 23.5304 22 23 22H9C8.46957 22 7.96086 21.7893 7.58579 21.4142C7.21071 21.0391 7 20.5304 7 20V9Z" stroke="#EB3223" stroke-width="2" stroke-linecap="round" stroke-linejoin="round"/>
<path d="M13 22V12H19V22" stroke="#EB3223" stroke-width="2" stroke-linecap="round" stroke-linejoin="round"/>
<path d="M8.01562 40H6.53906V36.209H2.72461V40H1.24219V31.4688H2.72461V35.0195H6.53906V31.4688H8.01562V40ZM9.36914 36.7715C9.36914 36.1504 9.49219 35.5918 9.73828 35.0957C9.98438 34.5957 10.3301 34.2129 10.7754 33.9473C11.2207 33.6777 11.7324 33.543 12.3105 33.543C13.166 33.543 13.8594 33.8184 14.3906 34.3691C14.9258 34.9199 15.2148 35.6504 15.2578 36.5605L15.2637 36.8945C15.2637 37.5195 15.1426 38.0781 14.9004 38.5703C14.6621 39.0625 14.3184 39.4434 13.8691 39.7129C13.4238 39.9824 12.9082 40.1172 12.3223 40.1172C11.4277 40.1172 10.7109 39.8203 10.1719 39.2266C9.63672 38.6289 9.36914 37.834 9.36914 36.8418V36.7715ZM10.793 36.8945C10.793 37.5469 10.9277 38.0586 11.1973 38.4297C11.4668 38.7969 11.8418 38.9805 12.3223 38.9805C12.8027 38.9805 13.1758 38.793 13.4414 38.418C13.7109 38.043 13.8457 37.4941 13.8457 36.7715C13.8457 36.1309 13.707 35.623 13.4297 35.248C13.1562 34.873 12.7832 34.6855 12.3105 34.6855C11.8457 34.6855 11.4766 34.8711 11.2031 35.2422C10.9297 35.6094 10.793 36.1602 10.793 36.8945ZM17.8066 33.6602L17.8477 34.3223C18.293 33.8027 18.9023 33.543 19.6758 33.543C20.5234 33.543 21.1035 33.8672 21.416 34.5156C21.877 33.8672 22.5254 33.543 23.3613 33.543C24.0605 33.543 24.5801 33.7363 24.9199 34.123C25.2637 34.5098 25.4395 35.0801 25.4473 35.834V40H24.0234V35.875C24.0234 35.4727 23.9355 35.1777 23.7598 34.9902C23.584 34.8027 23.293 34.709 22.8867 34.709C22.5625 34.709 22.2969 34.7969 22.0898 34.9727C21.8867 35.1445 21.7441 35.3711 21.6621 35.6523L21.668 40H20.2441V35.8281C20.2246 35.082 19.8438 34.709 19.1016 34.709C18.5312 34.709 18.127 34.9414 17.8887 35.4062V40H16.4648V33.6602H17.8066ZM29.7012 40.1172C28.7988 40.1172 28.0664 39.834 27.5039 39.2676C26.9453 38.6973 26.666 37.9395 26.666 36.9941V36.8184C26.666 36.1855 26.7871 35.6211 27.0293 35.125C27.2754 34.625 27.6191 34.2363 28.0605 33.959C28.502 33.6816 28.9941 33.543 29.5371 33.543C30.4004 33.543 31.0664 33.8184 31.5352 34.3691C32.0078 34.9199 32.2441 35.6992 32.2441 36.707V37.2812H28.1016C28.1445 37.8047 28.3184 38.2188 28.623 38.5234C28.9316 38.8281 29.3184 38.9805 29.7832 38.9805C30.4355 38.9805 30.9668 38.7168 31.377 38.1895L32.1445 38.9219C31.8906 39.3008 31.5508 39.5957 31.125 39.8066C30.7031 40.0137 30.2285 40.1172 29.7012 40.1172ZM29.5312 34.6855C29.1406 34.6855 28.8242 34.8223 28.582 35.0957C28.3438 35.3691 28.1914 35.75 28.125 36.2383H30.8379V36.1328C30.8066 35.6562 30.6797 35.2969 30.457 35.0547C30.2344 34.8086 29.9258 34.6855 29.5312 34.6855Z" fill="#EB3223"/>
</svg>
