<svg width="75" height="24" viewBox="0 0 75 24" fill="none" xmlns="http://www.w3.org/2000/svg">
<rect x="0.5" y="0.5" width="74" height="23" fill="#FFFEFE" stroke="#BC261A"/>
<path d="M3.88494 18H10.4027V16.2251H6.03764V7.81818H3.88494V18ZM13.981 7.81818H11.8283V18H13.981V7.81818ZM17.5916 7.81818H15.2003L18.7152 18H21.4893L24.9993 7.81818H22.6129L20.147 15.554H20.0526L17.5916 7.81818ZM26.2248 18H33.1055V16.2251H28.3775V13.794H32.7326V12.0192H28.3775V9.59304H33.0856V7.81818H26.2248V18ZM46.5536 7.81818H44.4109V14.2216H44.3214L39.9265 7.81818H38.0373V18H40.19V11.5916H40.2646L44.6942 18H46.5536V7.81818ZM57.6887 12.9091C57.6887 9.57812 55.6206 7.67898 52.921 7.67898C50.2065 7.67898 48.1532 9.57812 48.1532 12.9091C48.1532 16.2251 50.2065 18.1392 52.921 18.1392C55.6206 18.1392 57.6887 16.2401 57.6887 12.9091ZM55.5062 12.9091C55.5062 15.0668 54.4821 16.2351 52.921 16.2351C51.3549 16.2351 50.3358 15.0668 50.3358 12.9091C50.3358 10.7514 51.3549 9.5831 52.921 9.5831C54.4821 9.5831 55.5062 10.7514 55.5062 12.9091ZM61.1925 18H63.2905L65.2244 11.343H65.304L67.2429 18H69.3409L72.2543 7.81818H69.9027L68.2173 14.9077H68.1278L66.2734 7.81818H64.2599L62.4006 14.8928H62.3161L60.6307 7.81818H58.2791L61.1925 18Z" fill="#BC261A"/>
</svg>
