<svg width="38" height="43" viewBox="0 0 38 43" fill="none" xmlns="http://www.w3.org/2000/svg">
<path d="M29.54 6.42C29.4212 5.94541 29.1793 5.51057 28.8387 5.15941C28.498 4.80824 28.0708 4.55318 27.6 4.42C25.88 4 19 4 19 4C19 4 12.12 4 10.4 4.46C9.92927 4.59318 9.502 4.84824 9.16137 5.19941C8.82074 5.55057 8.57881 5.98541 8.46002 6.46C8.14524 8.20556 7.99126 9.97631 8.00002 11.75C7.9888 13.537 8.14279 15.3213 8.46002 17.08C8.59098 17.5398 8.83833 17.9581 9.17817 18.2945C9.518 18.6308 9.93884 18.8738 10.4 19C12.12 19.46 19 19.46 19 19.46C19 19.46 25.88 19.46 27.6 19C28.0708 18.8668 28.498 18.6118 28.8387 18.2606C29.1793 17.9094 29.4212 17.4746 29.54 17C29.8524 15.2676 30.0063 13.5103 30 11.75C30.0112 9.96295 29.8573 8.1787 29.54 6.42Z" stroke="#606060" stroke-width="2" stroke-linecap="round" stroke-linejoin="round"/>
<path d="M16.75 15.02L22.5 11.75L16.75 8.48V15.02Z" stroke="#606060" stroke-width="2" stroke-linecap="round" stroke-linejoin="round"/>
<path d="M2.83398 38.8164H6.70703V40H1.35156V31.4688H2.83398V38.8164ZM9.2207 40H7.79688V33.6602H9.2207V40ZM7.70898 32.0137C7.70898 31.7949 7.77734 31.6133 7.91406 31.4688C8.05469 31.3242 8.25391 31.252 8.51172 31.252C8.76953 31.252 8.96875 31.3242 9.10938 31.4688C9.25 31.6133 9.32031 31.7949 9.32031 32.0137C9.32031 32.2285 9.25 32.4082 9.10938 32.5527C8.96875 32.6934 8.76953 32.7637 8.51172 32.7637C8.25391 32.7637 8.05469 32.6934 7.91406 32.5527C7.77734 32.4082 7.70898 32.2285 7.70898 32.0137ZM16.3398 36.8945C16.3398 37.8789 16.1191 38.6621 15.6777 39.2441C15.2402 39.8262 14.6367 40.1172 13.8672 40.1172C13.125 40.1172 12.5469 39.8496 12.1328 39.3145L12.0625 40H10.7734V31H12.1973V34.2695C12.6074 33.7852 13.1602 33.543 13.8555 33.543C14.6289 33.543 15.2363 33.8301 15.6777 34.4043C16.1191 34.9785 16.3398 35.7812 16.3398 36.8125V36.8945ZM14.916 36.7715C14.916 36.084 14.7949 35.5684 14.5527 35.2246C14.3105 34.8809 13.959 34.709 13.498 34.709C12.8809 34.709 12.4473 34.9785 12.1973 35.5176V38.1309C12.4512 38.6816 12.8887 38.957 13.5098 38.957C13.9551 38.957 14.2988 38.791 14.541 38.459C14.7832 38.127 14.9082 37.625 14.916 36.9531V36.7715ZM20.8574 34.9609C20.6699 34.9297 20.4766 34.9141 20.2773 34.9141C19.625 34.9141 19.1855 35.1641 18.959 35.6641V40H17.5352V33.6602H18.8945L18.9297 34.3691C19.2734 33.8184 19.75 33.543 20.3594 33.543C20.5625 33.543 20.7305 33.5703 20.8633 33.625L20.8574 34.9609ZM25.3691 40C25.3066 39.8789 25.252 39.6816 25.2051 39.4082C24.752 39.8809 24.1973 40.1172 23.541 40.1172C22.9043 40.1172 22.3848 39.9355 21.9824 39.5723C21.5801 39.209 21.3789 38.7598 21.3789 38.2246C21.3789 37.5488 21.6289 37.0312 22.1289 36.6719C22.6328 36.3086 23.3516 36.127 24.2852 36.127H25.1582V35.7109C25.1582 35.3828 25.0664 35.1211 24.8828 34.9258C24.6992 34.7266 24.4199 34.627 24.0449 34.627C23.7207 34.627 23.4551 34.709 23.248 34.873C23.041 35.0332 22.9375 35.2383 22.9375 35.4883H21.5137C21.5137 35.1406 21.6289 34.8164 21.8594 34.5156C22.0898 34.2109 22.4023 33.9727 22.7969 33.8008C23.1953 33.6289 23.6387 33.543 24.127 33.543C24.8691 33.543 25.4609 33.7305 25.9023 34.1055C26.3438 34.4766 26.5703 35 26.582 35.6758V38.5352C26.582 39.1055 26.6621 39.5605 26.8223 39.9004V40H25.3691ZM23.8047 38.9746C24.0859 38.9746 24.3496 38.9062 24.5957 38.7695C24.8457 38.6328 25.0332 38.4492 25.1582 38.2188V37.0234H24.3906C23.8633 37.0234 23.4668 37.1152 23.2012 37.2988C22.9355 37.4824 22.8027 37.7422 22.8027 38.0781C22.8027 38.3516 22.8926 38.5703 23.0723 38.7344C23.2559 38.8945 23.5 38.9746 23.8047 38.9746ZM31.3926 34.9609C31.2051 34.9297 31.0117 34.9141 30.8125 34.9141C30.1602 34.9141 29.7207 35.1641 29.4941 35.6641V40H28.0703V33.6602H29.4297L29.4648 34.3691C29.8086 33.8184 30.2852 33.543 30.8945 33.543C31.0977 33.543 31.2656 33.5703 31.3984 33.625L31.3926 34.9609ZM34.6152 37.9609L35.9043 33.6602H37.4219L34.9023 40.9609C34.5156 42.0273 33.8594 42.5605 32.9336 42.5605C32.7266 42.5605 32.498 42.5254 32.248 42.4551V41.3535L32.5176 41.3711C32.877 41.3711 33.1465 41.3047 33.3262 41.1719C33.5098 41.043 33.6543 40.8242 33.7598 40.5156L33.9648 39.9707L31.7383 33.6602H33.2734L34.6152 37.9609Z" fill="#606060"/>
</svg>
