<svg width="48" height="43" viewBox="0 0 48 43" fill="none" xmlns="http://www.w3.org/2000/svg">
<path d="M36 6L26.5 15.5L21.5 10.5L14 18" stroke="#606060" stroke-width="2" stroke-linecap="round" stroke-linejoin="round"/>
<path d="M30 6H36V12" stroke="#606060" stroke-width="2" stroke-linecap="round" stroke-linejoin="round"/>
<path d="M7.30078 32.6641H4.64062V40H3.16992V32.6641H0.533203V31.4688H7.30078V32.6641ZM11.2207 34.9609C11.0332 34.9297 10.8398 34.9141 10.6406 34.9141C9.98828 34.9141 9.54883 35.1641 9.32227 35.6641V40H7.89844V33.6602H9.25781L9.29297 34.3691C9.63672 33.8184 10.1133 33.543 10.7227 33.543C10.9258 33.543 11.0938 33.5703 11.2266 33.625L11.2207 34.9609ZM14.7949 40.1172C13.8926 40.1172 13.1602 39.834 12.5977 39.2676C12.0391 38.6973 11.7598 37.9395 11.7598 36.9941V36.8184C11.7598 36.1855 11.8809 35.6211 12.123 35.125C12.3691 34.625 12.7129 34.2363 13.1543 33.959C13.5957 33.6816 14.0879 33.543 14.6309 33.543C15.4941 33.543 16.1602 33.8184 16.6289 34.3691C17.1016 34.9199 17.3379 35.6992 17.3379 36.707V37.2812H13.1953C13.2383 37.8047 13.4121 38.2188 13.7168 38.5234C14.0254 38.8281 14.4121 38.9805 14.877 38.9805C15.5293 38.9805 16.0605 38.7168 16.4707 38.1895L17.2383 38.9219C16.9844 39.3008 16.6445 39.5957 16.2188 39.8066C15.7969 40.0137 15.3223 40.1172 14.7949 40.1172ZM14.625 34.6855C14.2344 34.6855 13.918 34.8223 13.6758 35.0957C13.4375 35.3691 13.2852 35.75 13.2188 36.2383H15.9316V36.1328C15.9004 35.6562 15.7734 35.2969 15.5508 35.0547C15.3281 34.8086 15.0195 34.6855 14.625 34.6855ZM19.7695 33.6602L19.8105 34.3926C20.2793 33.8262 20.8945 33.543 21.6562 33.543C22.9766 33.543 23.6484 34.2988 23.6719 35.8105V40H22.248V35.8926C22.248 35.4902 22.1602 35.1934 21.9844 35.002C21.8125 34.8066 21.5293 34.709 21.1348 34.709C20.5605 34.709 20.1328 34.9688 19.8516 35.4883V40H18.4277V33.6602H19.7695ZM24.8613 36.7832C24.8613 35.8066 25.0879 35.0234 25.541 34.4336C25.9941 33.8398 26.6016 33.543 27.3633 33.543C28.0352 33.543 28.5781 33.7773 28.9922 34.2461V31H30.416V40H29.127L29.0566 39.3438C28.6309 39.8594 28.0625 40.1172 27.3516 40.1172C26.6094 40.1172 26.0078 39.8184 25.5469 39.2207C25.0898 38.623 24.8613 37.8105 24.8613 36.7832ZM26.2852 36.9062C26.2852 37.5508 26.4082 38.0547 26.6543 38.418C26.9043 38.7773 27.2578 38.957 27.7148 38.957C28.2969 38.957 28.7227 38.6973 28.9922 38.1777V35.4707C28.7305 34.9629 28.3086 34.709 27.7266 34.709C27.2656 34.709 26.9102 34.8926 26.6602 35.2598C26.4102 35.623 26.2852 36.1719 26.2852 36.9062ZM33.416 40H31.9922V33.6602H33.416V40ZM31.9043 32.0137C31.9043 31.7949 31.9727 31.6133 32.1094 31.4688C32.25 31.3242 32.4492 31.252 32.707 31.252C32.9648 31.252 33.1641 31.3242 33.3047 31.4688C33.4453 31.6133 33.5156 31.7949 33.5156 32.0137C33.5156 32.2285 33.4453 32.4082 33.3047 32.5527C33.1641 32.6934 32.9648 32.7637 32.707 32.7637C32.4492 32.7637 32.25 32.6934 32.1094 32.5527C31.9727 32.4082 31.9043 32.2285 31.9043 32.0137ZM36.293 33.6602L36.334 34.3926C36.8027 33.8262 37.418 33.543 38.1797 33.543C39.5 33.543 40.1719 34.2988 40.1953 35.8105V40H38.7715V35.8926C38.7715 35.4902 38.6836 35.1934 38.5078 35.002C38.3359 34.8066 38.0527 34.709 37.6582 34.709C37.084 34.709 36.6562 34.9688 36.375 35.4883V40H34.9512V33.6602H36.293ZM41.4023 36.7832C41.4023 35.7988 41.6328 35.0137 42.0938 34.4277C42.5586 33.8379 43.1738 33.543 43.9395 33.543C44.6621 33.543 45.2305 33.7949 45.6445 34.2988L45.709 33.6602H46.9922V39.8066C46.9922 40.6387 46.7324 41.2949 46.2129 41.7754C45.6973 42.2559 45 42.4961 44.1211 42.4961C43.6562 42.4961 43.2012 42.3984 42.7559 42.2031C42.3145 42.0117 41.9785 41.7598 41.748 41.4473L42.4219 40.5918C42.8594 41.1113 43.3984 41.3711 44.0391 41.3711C44.5117 41.3711 44.8848 41.2422 45.1582 40.9844C45.4316 40.7305 45.5684 40.3555 45.5684 39.8594V39.4316C45.1582 39.8887 44.6113 40.1172 43.9277 40.1172C43.1855 40.1172 42.5781 39.8223 42.1055 39.2324C41.6367 38.6426 41.4023 37.8262 41.4023 36.7832ZM42.8203 36.9062C42.8203 37.543 42.9492 38.0449 43.207 38.4121C43.4688 38.7754 43.8301 38.957 44.291 38.957C44.8652 38.957 45.291 38.7109 45.5684 38.2188V35.4297C45.2988 34.9492 44.877 34.709 44.3027 34.709C43.834 34.709 43.4688 34.8945 43.207 35.2656C42.9492 35.6367 42.8203 36.1836 42.8203 36.9062Z" fill="#606060"/>
</svg>
