<svg width="43" height="43" viewBox="0 0 43 43" fill="none" xmlns="http://www.w3.org/2000/svg">
<path d="M17.3832 27.75H25.6168V26H17.3832V27.75ZM25.6168 27.75C28.797 27.75 31.375 30.328 31.375 33.5082H33.125C33.125 29.3615 29.7634 26 25.6168 26V27.75ZM17.3832 26C13.2366 26 9.875 29.3615 9.875 33.5082H11.625C11.625 30.328 14.203 27.75 17.3832 27.75V26ZM26 16.125C26 18.6103 23.9853 20.625 21.5 20.625V22.375C24.9518 22.375 27.75 19.5768 27.75 16.125H26ZM21.5 20.625C19.0147 20.625 17 18.6103 17 16.125H15.25C15.25 19.5768 18.0482 22.375 21.5 22.375V20.625ZM17 16.125C17 13.6397 19.0147 11.625 21.5 11.625V9.875C18.0482 9.875 15.25 12.6732 15.25 16.125H17ZM21.5 11.625C23.9853 11.625 26 13.6397 26 16.125H27.75C27.75 12.6732 24.9518 9.875 21.5 9.875V11.625ZM36.75 21.5C36.75 29.9223 29.9223 36.75 21.5 36.75V38.5C30.8888 38.5 38.5 30.8888 38.5 21.5H36.75ZM21.5 36.75C13.0777 36.75 6.25 29.9223 6.25 21.5H4.5C4.5 30.8888 12.1112 38.5 21.5 38.5V36.75ZM6.25 21.5C6.25 13.0777 13.0777 6.25 21.5 6.25V4.5C12.1112 4.5 4.5 12.1112 4.5 21.5H6.25ZM21.5 6.25C29.9223 6.25 36.75 13.0777 36.75 21.5H38.5C38.5 12.1112 30.8888 4.5 21.5 4.5V6.25Z" fill="#606060"/>
</svg>
