<svg width="33" height="33" viewBox="0 0 33 33" fill="none" xmlns="http://www.w3.org/2000/svg">
<g clip-path="url(#clip0)">
<path d="M14.5383 29.0347C14.3561 29.334 14.0985 29.5801 13.7912 29.7485C13.484 29.9169 13.1378 30.0016 12.7875 29.9942C12.4372 29.9867 12.0951 29.8874 11.7952 29.7061C11.4954 29.5248 11.2484 29.2679 11.0791 28.9612M22.8915 25.2114L2.89601 24.7863C3.69148 24.8032 4.46109 24.5034 5.03553 23.9529C5.60997 23.4024 5.94219 22.6462 5.9591 21.8507L6.06538 16.8519C6.10484 14.9958 6.88001 13.2314 8.22038 11.9468C9.56074 10.6623 11.3565 9.96277 13.2126 10.0022C15.0687 10.0417 16.8331 10.8169 18.1176 12.1572C19.4022 13.4976 20.1017 15.2933 20.0622 17.1494L19.9559 22.1483C19.939 22.9438 20.2388 23.7134 20.7893 24.2878C21.3398 24.8623 22.096 25.1945 22.8915 25.2114Z" stroke="#606060" stroke-width="2" stroke-linecap="round" stroke-linejoin="round"/>
</g>
<circle cx="23" cy="10" r="10" fill="#BC261A"/>
<path d="M26.2988 14H20.709V13.2207L23.6621 9.93945C24.0996 9.44336 24.4004 9.04102 24.5645 8.73242C24.7324 8.41992 24.8164 8.09766 24.8164 7.76562C24.8164 7.32031 24.6816 6.95508 24.4121 6.66992C24.1426 6.38477 23.7832 6.24219 23.334 6.24219C22.7949 6.24219 22.375 6.39648 22.0742 6.70508C21.7773 7.00977 21.6289 7.43555 21.6289 7.98242H20.5449C20.5449 7.19727 20.7969 6.5625 21.3008 6.07812C21.8086 5.59375 22.4863 5.35156 23.334 5.35156C24.127 5.35156 24.7539 5.56055 25.2148 5.97852C25.6758 6.39258 25.9062 6.94531 25.9062 7.63672C25.9062 8.47656 25.3711 9.47656 24.3008 10.6367L22.0156 13.1152H26.2988V14Z" fill="#F7E5E3"/>
<defs>
<clipPath id="clip0">
<rect width="24" height="24" fill="white" transform="translate(1.25781 7.74762) rotate(1.21795)"/>
</clipPath>
</defs>
</svg>
