<svg width="37" height="36" viewBox="0 0 37 36" fill="none" xmlns="http://www.w3.org/2000/svg">
<ellipse cx="18.5" cy="18" rx="18.5" ry="18" fill="#B32E5B"/>
<path d="M15.0186 11.2031H16.7148V20.2646C16.7148 21.4893 16.3457 22.4473 15.6074 23.1387C14.875 23.8301 13.8965 24.1758 12.6719 24.1758C11.4004 24.1758 10.4102 23.8506 9.70117 23.2002C8.99219 22.5498 8.6377 21.6387 8.6377 20.4668H10.3252C10.3252 21.1992 10.5244 21.7705 10.9229 22.1807C11.3271 22.5908 11.9102 22.7959 12.6719 22.7959C13.3691 22.7959 13.9316 22.5762 14.3594 22.1367C14.793 21.6973 15.0127 21.082 15.0186 20.291V11.2031ZM29.002 19.9395C28.8438 21.293 28.3428 22.3389 27.499 23.0771C26.6611 23.8096 25.5449 24.1758 24.1504 24.1758C22.6387 24.1758 21.4258 23.6338 20.5117 22.5498C19.6035 21.4658 19.1494 20.0156 19.1494 18.1992V16.9688C19.1494 15.7793 19.3604 14.7334 19.7822 13.8311C20.21 12.9287 20.8135 12.2373 21.5928 11.7568C22.3721 11.2705 23.2744 11.0273 24.2998 11.0273C25.6592 11.0273 26.749 11.4082 27.5693 12.1699C28.3896 12.9258 28.8672 13.9746 29.002 15.3164H27.3057C27.1592 14.2969 26.8398 13.5586 26.3477 13.1016C25.8613 12.6445 25.1787 12.416 24.2998 12.416C23.2217 12.416 22.375 12.8145 21.7598 13.6113C21.1504 14.4082 20.8457 15.542 20.8457 17.0127V18.252C20.8457 19.6406 21.1357 20.7451 21.7158 21.5654C22.2959 22.3857 23.1074 22.7959 24.1504 22.7959C25.0879 22.7959 25.8057 22.585 26.3037 22.1631C26.8076 21.7354 27.1416 20.9941 27.3057 19.9395H29.002Z" fill="#F0DBE6"/>
</svg>
