<svg width="406" height="27" viewBox="0 0 406 27" fill="none" xmlns="http://www.w3.org/2000/svg">
<path d="M10 18V22C10 22.7956 10.3161 23.5587 10.8787 24.1213C11.4413 24.6839 12.2044 25 13 25L17 16V5H5.72003C5.2377 4.99454 4.76965 5.16359 4.40212 5.47599C4.0346 5.78839 3.79235 6.22309 3.72003 6.7L2.34003 15.7C2.29652 15.9866 2.31586 16.2793 2.39669 16.5577C2.47753 16.8362 2.61793 17.0937 2.80817 17.3125C2.99842 17.5313 3.23395 17.7061 3.49846 17.8248C3.76297 17.9435 4.05012 18.0033 4.34003 18H10ZM17 5H19.67C20.236 4.98999 20.7859 5.18813 21.2154 5.55681C21.645 5.9255 21.9242 6.43905 22 7V14C21.9242 14.5609 21.645 15.0745 21.2154 15.4432C20.7859 15.8119 20.236 16.01 19.67 16H17" fill="#C4C4C4"/>
<path d="M17 5H19.67C20.236 4.98999 20.7859 5.18813 21.2154 5.55681C21.645 5.9255 21.9242 6.43905 22 7V14C21.9242 14.5609 21.645 15.0745 21.2154 15.4432C20.7859 15.8119 20.236 16.01 19.67 16H17M10 18V22C10 22.7956 10.3161 23.5587 10.8787 24.1213C11.4413 24.6839 12.2044 25 13 25L17 16V5H5.72003C5.2377 4.99454 4.76965 5.16359 4.40212 5.47599C4.0346 5.78839 3.79235 6.22309 3.72003 6.7L2.34003 15.7C2.29652 15.9866 2.31586 16.2793 2.39669 16.5577C2.47753 16.8362 2.61793 17.0937 2.80817 17.3125C2.99842 17.5313 3.23395 17.7061 3.49846 17.8248C3.76297 17.9435 4.05012 18.0033 4.34003 18H10Z" stroke="#111111" stroke-width="2" stroke-linecap="round" stroke-linejoin="round"/>
<path d="M102 9V5C102 4.20435 101.684 3.44129 101.121 2.87868C100.559 2.31607 99.7956 2 99 2L95 11V22H106.28C106.762 22.0055 107.23 21.8364 107.598 21.524C107.965 21.2116 108.208 20.7769 108.28 20.3L109.66 11.3C109.704 11.0134 109.684 10.7207 109.603 10.4423C109.523 10.1638 109.382 9.90629 109.192 9.68751C109.002 9.46873 108.766 9.29393 108.502 9.17522C108.237 9.0565 107.95 8.99672 107.66 9H102ZM95 22H92C91.4696 22 90.9609 21.7893 90.5858 21.4142C90.2107 21.0391 90 20.5304 90 20V13C90 12.4696 90.2107 11.9609 90.5858 11.5858C90.9609 11.2107 91.4696 11 92 11H95" fill="#C4C4C4"/>
<path d="M95 22H92C91.4696 22 90.9609 21.7893 90.5858 21.4142C90.2107 21.0391 90 20.5304 90 20V13C90 12.4696 90.2107 11.9609 90.5858 11.5858C90.9609 11.2107 91.4696 11 92 11H95M102 9V5C102 4.20435 101.684 3.44129 101.121 2.87868C100.559 2.31607 99.7956 2 99 2L95 11V22H106.28C106.762 22.0055 107.23 21.8364 107.598 21.524C107.965 21.2116 108.208 20.7769 108.28 20.3L109.66 11.3C109.704 11.0134 109.684 10.7207 109.603 10.4423C109.523 10.1638 109.382 9.90629 109.192 9.68751C109.002 9.46873 108.766 9.29393 108.502 9.17522C108.237 9.0565 107.95 8.99672 107.66 9H102Z" stroke="#111111" stroke-width="2" stroke-linecap="round" stroke-linejoin="round"/>
<path d="M297 20V15H291V20M302 9.82843V18C302 19.1046 301.105 20 300 20H288C286.895 20 286 19.1046 286 18V6C286 4.89543 286.895 4 288 4H296.172C296.702 4 297.211 4.21071 297.586 4.58579L301.414 8.41421C301.789 8.78929 302 9.29799 302 9.82843Z" stroke="#606060" stroke-width="2.5" stroke-linecap="round" stroke-linejoin="round"/>
<path d="M179.715 19.3875C179.715 13.0984 185.06 9 191.653 9L195 9V9" stroke="#606060" stroke-width="4" stroke-linecap="round"/>
<path d="M191 4L196 9L191 14" stroke="#606060" stroke-width="4" stroke-linecap="round"/>
<path d="M31.4034 19H33.9432L38.7727 9.40341V7.36364H30.608V9.375H36.2273V9.45455L31.4034 19ZM44.7713 19.2557C47.6974 19.2557 49.4645 17.0284 49.4702 13.1932C49.4759 9.38636 47.6861 7.20455 44.7713 7.20455C41.8509 7.20455 40.0781 9.38068 40.0724 13.1932C40.0611 17.017 41.8395 19.25 44.7713 19.2557ZM44.7713 17.2159C43.4361 17.2159 42.5724 15.875 42.5781 13.1932C42.5838 10.5511 43.4418 9.22159 44.7713 9.22159C46.0952 9.22159 46.9588 10.5511 46.9588 13.1932C46.9645 15.875 46.1009 17.2159 44.7713 17.2159ZM51.2926 19H53.7528V15.6932L54.9631 14.2159L58.1506 19H61.0938L56.7244 12.5739L61.0426 7.36364H58.0938L53.9062 12.4943H53.7528V7.36364H51.2926V19Z" fill="#606060"/>
<path d="M124.006 7.36364H121.693L118.812 9.1875V11.3693L121.477 9.69886H121.545V19H124.006V7.36364ZM127.599 19.1477C128.327 19.1477 128.957 18.5398 128.963 17.7841C128.957 17.0398 128.327 16.4318 127.599 16.4318C126.849 16.4318 126.23 17.0398 126.236 17.7841C126.23 18.5398 126.849 19.1477 127.599 19.1477ZM130.928 19H139.223V16.9886H134.337V16.9091L136.036 15.2443C138.428 13.0625 139.07 11.9716 139.07 10.6477C139.07 8.63068 137.422 7.20455 134.928 7.20455C132.484 7.20455 130.808 8.66477 130.814 10.9489H133.149C133.143 9.83523 133.848 9.15341 134.911 9.15341C135.933 9.15341 136.695 9.78977 136.695 10.8125C136.695 11.7386 136.126 12.375 135.07 13.392L130.928 17.2273V19ZM141.074 19H143.534V15.6932L144.744 14.2159L147.932 19H150.875L146.506 12.5739L150.824 7.36364H147.875L143.688 12.4943H143.534V7.36364H141.074V19Z" fill="#606060"/>
<path d="M213.324 10.7102H215.682C215.648 8.63636 213.943 7.20455 211.352 7.20455C208.801 7.20455 206.932 8.61364 206.943 10.7273C206.938 12.4432 208.148 13.4261 210.114 13.8977L211.381 14.2159C212.648 14.5227 213.352 14.8864 213.358 15.6705C213.352 16.5227 212.545 17.1023 211.295 17.1023C210.017 17.1023 209.097 16.5114 209.017 15.3466H206.636C206.699 17.8636 208.5 19.1648 211.324 19.1648C214.165 19.1648 215.835 17.8068 215.841 15.6761C215.835 13.7386 214.375 12.7102 212.352 12.2557L211.307 12.0057C210.295 11.7727 209.449 11.3977 209.466 10.5625C209.466 9.8125 210.131 9.26136 211.335 9.26136C212.511 9.26136 213.233 9.79545 213.324 10.7102ZM217.496 19H219.956V14.1932H224.95V19H227.405V7.36364H224.95V12.1648H219.956V7.36364H217.496V19ZM231.439 19L232.303 16.3466H236.501L237.365 19H240.001L235.99 7.36364H232.82L228.803 19H231.439ZM232.928 14.4261L234.359 10.0227H234.45L235.882 14.4261H232.928ZM241.402 19H243.862V14.875H245.658L247.862 19H250.578L248.107 14.4773C249.43 13.9091 250.163 12.7557 250.163 11.1648C250.163 8.85227 248.635 7.36364 245.993 7.36364H241.402V19ZM243.862 12.8977V9.375H245.521C246.942 9.375 247.629 10.0057 247.629 11.1648C247.629 12.3182 246.942 12.8977 245.533 12.8977H243.862ZM251.902 19H259.766V16.9716H254.362V14.1932H259.339V12.1648H254.362V9.39205H259.743V7.36364H251.902V19Z" fill="#606060"/>
<path d="M324.324 10.7102H326.682C326.648 8.63636 324.943 7.20455 322.352 7.20455C319.801 7.20455 317.932 8.61364 317.943 10.7273C317.938 12.4432 319.148 13.4261 321.114 13.8977L322.381 14.2159C323.648 14.5227 324.352 14.8864 324.358 15.6705C324.352 16.5227 323.545 17.1023 322.295 17.1023C321.017 17.1023 320.097 16.5114 320.017 15.3466H317.636C317.699 17.8636 319.5 19.1648 322.324 19.1648C325.165 19.1648 326.835 17.8068 326.841 15.6761C326.835 13.7386 325.375 12.7102 323.352 12.2557L322.307 12.0057C321.295 11.7727 320.449 11.3977 320.466 10.5625C320.466 9.8125 321.131 9.26136 322.335 9.26136C323.511 9.26136 324.233 9.79545 324.324 10.7102ZM330.236 19L331.099 16.3466H335.298L336.162 19H338.798L334.787 7.36364H331.616L327.599 19H330.236ZM331.724 14.4261L333.156 10.0227H333.247L334.679 14.4261H331.724ZM340.864 7.36364H338.131L342.148 19H345.318L349.33 7.36364H346.602L343.784 16.2045H343.676L340.864 7.36364ZM350.73 19H358.594V16.9716H353.19V14.1932H358.168V12.1648H353.19V9.39205H358.571V7.36364H350.73V19Z" fill="#606060"/>
<path d="M394 13C394.552 13 395 12.5523 395 12C395 11.4477 394.552 11 394 11C393.448 11 393 11.4477 393 12C393 12.5523 393.448 13 394 13Z" stroke="#606060" stroke-width="2.5" stroke-linecap="round" stroke-linejoin="round"/>
<path d="M401 13C401.552 13 402 12.5523 402 12C402 11.4477 401.552 11 401 11C400.448 11 400 11.4477 400 12C400 12.5523 400.448 13 401 13Z" stroke="#606060" stroke-width="2.5" stroke-linecap="round" stroke-linejoin="round"/>
<path d="M387 13C387.552 13 388 12.5523 388 12C388 11.4477 387.552 11 387 11C386.448 11 386 11.4477 386 12C386 12.5523 386.448 13 387 13Z" stroke="#606060" stroke-width="2.5" stroke-linecap="round" stroke-linejoin="round"/>
</svg>
