<svg width="138" height="24" viewBox="0 0 138 24" fill="none" xmlns="http://www.w3.org/2000/svg">
<path d="M3 12H21" stroke="#606060" stroke-width="2" stroke-linecap="round" stroke-linejoin="round"/>
<path d="M3 6H21" stroke="#606060" stroke-width="2" stroke-linecap="round" stroke-linejoin="round"/>
<path d="M3 18H21" stroke="#606060" stroke-width="2" stroke-linecap="round" stroke-linejoin="round"/>
<path d="M81.6975 7.0915C81.3735 5.8765 80.415 4.918 79.1955 4.5895C76.9905 4 68.1435 4 68.1435 4C68.1435 4 59.301 4 57.0915 4.5895C55.8765 4.9135 54.918 5.872 54.5895 7.0915C54 9.2965 54 13.9001 54 13.9001C54 13.9001 54 18.5036 54.5895 20.7086C54.9135 21.9236 55.872 22.8819 57.0915 23.2104C59.301 23.7999 68.1435 23.7999 68.1435 23.7999C68.1435 23.7999 76.9905 23.7999 79.1955 23.2104C80.4105 22.8864 81.369 21.9281 81.6975 20.7086C82.287 18.5036 82.287 13.9001 82.287 13.9001C82.287 13.9001 82.287 9.2965 81.6975 7.0915Z" fill="#FF0000"/>
<path d="M66 17.487L73.3485 13.2435L66 9V17.487Z" fill="white"/>
<path d="M132.672 16.7085V17.334C132.672 18.1305 132.695 18.7245 132.744 19.125C132.789 19.521 132.888 19.8135 133.037 19.9935C133.185 20.1735 133.415 20.268 133.725 20.268C134.144 20.268 134.432 20.106 134.585 19.782C134.738 19.458 134.823 18.918 134.837 18.162L137.244 18.3015C137.258 18.4095 137.262 18.558 137.262 18.747C137.262 19.8945 136.947 20.7495 136.322 21.3165C135.696 21.8835 134.81 22.167 133.662 22.167C132.285 22.167 131.322 21.735 130.769 20.871C130.215 20.007 129.941 18.675 129.941 16.866V14.7015C129.941 12.8385 130.229 11.484 130.8 10.6245C131.372 9.76946 132.353 9.34196 133.743 9.34196C134.702 9.34196 135.435 9.51746 135.948 9.86846C136.461 10.2195 136.821 10.7639 137.033 11.5065C137.24 12.249 137.348 13.275 137.348 14.58V16.704H132.672V16.7085ZM133.028 11.4885C132.888 11.664 132.794 11.952 132.744 12.348C132.695 12.744 132.672 13.3515 132.672 14.157V15.048H134.715V14.157C134.715 13.3605 134.688 12.7575 134.634 12.348C134.58 11.9385 134.481 11.646 134.342 11.4795C134.202 11.313 133.982 11.2275 133.685 11.2275C133.388 11.223 133.167 11.313 133.028 11.4885Z" fill="black"/>
<path d="M100.581 16.467V17.1011C100.581 17.9084 100.603 18.5105 100.649 18.9165C100.692 19.3179 100.786 19.6144 100.926 19.7968C101.066 19.9793 101.283 20.0751 101.577 20.0751C101.972 20.0751 102.244 19.9109 102.389 19.5825C102.533 19.254 102.614 18.7067 102.627 17.9404L104.902 18.0818C104.915 18.1912 104.919 18.3418 104.919 18.5333C104.919 19.6965 104.622 20.5632 104.03 21.1379C103.439 21.7126 102.601 22 101.517 22C100.216 22 99.3056 21.5621 98.7825 20.6863C98.2594 19.8105 98 18.4604 98 16.6267V14.4327C98 12.5442 98.2722 11.1713 98.8123 10.3C99.3524 9.43333 100.279 9 101.594 9C102.499 9 103.193 9.17789 103.677 9.53368C104.162 9.88947 104.502 10.4414 104.702 11.1941C104.898 11.9467 105 12.9867 105 14.3095V16.4625H100.581V16.467ZM100.917 11.1758C100.786 11.3537 100.696 11.6457 100.649 12.0471C100.603 12.4485 100.581 13.0642 100.581 13.8807V14.7839H102.512V13.8807C102.512 13.0734 102.487 12.4621 102.436 12.0471C102.385 11.632 102.291 11.3355 102.159 11.1667C102.027 10.9979 101.819 10.9112 101.538 10.9112C101.258 10.9067 101.049 10.9979 100.917 11.1758Z" fill="black"/>
<path d="M119.222 9.57596V21.9735H117.039L116.796 20.457H116.738C116.144 21.6045 115.253 22.176 114.069 22.176C113.246 22.176 112.638 21.906 112.247 21.366C111.855 20.826 111.662 19.9845 111.662 18.837V9.57596H114.452V18.6795C114.452 19.233 114.51 19.629 114.632 19.863C114.753 20.097 114.956 20.2185 115.239 20.2185C115.482 20.2185 115.716 20.1465 115.937 19.998C116.157 19.8495 116.324 19.6605 116.432 19.431V9.57596H119.222Z" fill="black"/>
<path d="M112.49 7.24922H109.718V21.9733H106.986V7.24922H104.214V5.00372H112.485V7.24922H112.49Z" fill="black"/>
<path d="M128.46 11.5603C128.289 10.7773 128.019 10.2103 127.641 9.85933C127.263 9.50833 126.746 9.33283 126.084 9.33283C125.571 9.33283 125.094 9.47683 124.649 9.76933C124.203 10.0573 123.861 10.4398 123.618 10.9123H123.596V4.37833H120.905V21.9778H123.209L123.492 20.8033H123.551C123.767 21.2218 124.091 21.5503 124.523 21.7933C124.955 22.0363 125.432 22.1578 125.958 22.1578C126.903 22.1578 127.596 21.7213 128.042 20.8528C128.487 19.9843 128.708 18.6253 128.708 16.7758V14.8138C128.712 13.4278 128.627 12.3433 128.46 11.5603ZM125.9 16.6183C125.9 17.5228 125.864 18.2293 125.787 18.7423C125.715 19.2553 125.589 19.6198 125.414 19.8358C125.238 20.0518 125.004 20.1598 124.707 20.1598C124.478 20.1598 124.266 20.1058 124.068 19.9978C123.875 19.8898 123.713 19.7278 123.591 19.5118V12.4693C123.686 12.1318 123.848 11.8573 124.077 11.6413C124.307 11.4253 124.554 11.3173 124.824 11.3173C125.108 11.3173 125.328 11.4298 125.481 11.6503C125.634 11.8708 125.742 12.2488 125.805 12.7708C125.864 13.2973 125.895 14.0443 125.895 15.0163V16.6183H125.9Z" fill="black"/>
<path d="M93.0317 5.394L91.0077 15.1H90.9617L88.9377 5.394H85.1887V22H87.6727V9.028H87.7187L90.2947 22H91.6747L94.2507 9.028H94.2967V22H96.7807V5.394H93.0317Z" fill="black"/>
</svg>
