<svg width="120" height="42" viewBox="0 0 120 42" fill="none" xmlns="http://www.w3.org/2000/svg">
<rect width="120" height="42" fill="#BC261A"/>
<path d="M22.625 18.4205H24.3182C24.267 16.5568 22.6193 15.2045 20.2557 15.2045C17.9205 15.2045 16.1307 16.5398 16.1307 18.5455C16.1307 20.1648 17.2898 21.1136 19.1591 21.6193L20.5341 21.9943C21.7784 22.3239 22.7386 22.733 22.7386 23.767C22.7386 24.9034 21.6534 25.6534 20.1591 25.6534C18.8068 25.6534 17.6818 25.0511 17.5795 23.7841H15.8182C15.9318 25.892 17.5625 27.1932 20.1705 27.1932C22.9034 27.1932 24.4773 25.7557 24.4773 23.7841C24.4773 21.6875 22.608 20.875 21.1307 20.5114L19.9943 20.2159C19.0852 19.983 17.875 19.5568 17.8807 18.4432C17.8807 17.4545 18.7841 16.7216 20.2159 16.7216C21.5511 16.7216 22.5 17.3466 22.625 18.4205ZM34.0582 15.3636V22.875C34.0582 24.4545 32.9673 25.5909 31.1946 25.5909C29.4276 25.5909 28.331 24.4545 28.331 22.875V15.3636H26.5753V23.017C26.5753 25.4602 28.4048 27.1932 31.1946 27.1932C33.9844 27.1932 35.8196 25.4602 35.8196 23.017V15.3636H34.0582ZM38.3722 27H42.8324C45.5369 27 46.7585 25.6534 46.7585 23.8693C46.7585 22.0682 45.4972 21.0511 44.3438 20.9886V20.875C45.4119 20.6023 46.304 19.875 46.304 18.4205C46.304 16.6989 45.1108 15.3636 42.6335 15.3636H38.3722V27ZM40.1278 25.4943V21.767H42.7244C44.1335 21.767 45.0142 22.6761 45.0142 23.7841C45.0142 24.7614 44.3494 25.4943 42.6619 25.4943H40.1278ZM40.1278 20.3977V16.858H42.5256C43.9176 16.858 44.5824 17.5909 44.5824 18.5568C44.5824 19.6818 43.6619 20.3977 42.4801 20.3977H40.1278ZM55.1875 18.4205H56.8807C56.8295 16.5568 55.1818 15.2045 52.8182 15.2045C50.483 15.2045 48.6932 16.5398 48.6932 18.5455C48.6932 20.1648 49.8523 21.1136 51.7216 21.6193L53.0966 21.9943C54.3409 22.3239 55.3011 22.733 55.3011 23.767C55.3011 24.9034 54.2159 25.6534 52.7216 25.6534C51.3693 25.6534 50.2443 25.0511 50.142 23.7841H48.3807C48.4943 25.892 50.125 27.1932 52.733 27.1932C55.4659 27.1932 57.0398 25.7557 57.0398 23.7841C57.0398 21.6875 55.1705 20.875 53.6932 20.5114L52.5568 20.2159C51.6477 19.983 50.4375 19.5568 50.4432 18.4432C50.4432 17.4545 51.3466 16.7216 52.7784 16.7216C54.1136 16.7216 55.0625 17.3466 55.1875 18.4205ZM68.8026 19.1477C68.4048 16.6591 66.456 15.2045 63.9957 15.2045C60.9844 15.2045 58.7628 17.4602 58.7628 21.1818C58.7628 24.9034 60.973 27.1591 63.9957 27.1591C66.5526 27.1591 68.4219 25.5568 68.8026 23.2557L67.0298 23.25C66.7287 24.7386 65.4787 25.5568 64.0071 25.5568C62.0128 25.5568 60.5071 24.0284 60.5071 21.1818C60.5071 18.358 62.0071 16.8068 64.0128 16.8068C65.4957 16.8068 66.7401 17.642 67.0298 19.1477H68.8026ZM70.9034 27H72.6591V22.5966H75.0455C75.0852 22.5966 75.1193 22.5966 75.1591 22.5966L77.5227 27H79.5227L76.9432 22.2898C78.3693 21.7614 79.0795 20.5739 79.0795 19.0114C79.0795 16.8693 77.75 15.3636 75.0511 15.3636H70.9034V27ZM72.6591 21.0852V16.8693H74.8636C76.5966 16.8693 77.3125 17.6932 77.3125 19.0114C77.3125 20.3239 76.5966 21.0852 74.8864 21.0852H72.6591ZM82.9716 15.3636H81.2159V27H82.9716V15.3636ZM85.5284 27H89.9886C92.6932 27 93.9148 25.6534 93.9148 23.8693C93.9148 22.0682 92.6534 21.0511 91.5 20.9886V20.875C92.5682 20.6023 93.4602 19.875 93.4602 18.4205C93.4602 16.6989 92.267 15.3636 89.7898 15.3636H85.5284V27ZM87.2841 25.4943V21.767H89.8807C91.2898 21.767 92.1705 22.6761 92.1705 23.7841C92.1705 24.7614 91.5057 25.4943 89.8182 25.4943H87.2841ZM87.2841 20.3977V16.858H89.6818C91.0739 16.858 91.7386 17.5909 91.7386 18.5568C91.7386 19.6818 90.8182 20.3977 89.6364 20.3977H87.2841ZM95.9972 27H103.361V25.4886H97.7528V21.9261H102.912V20.4205H97.7528V16.875H103.293V15.3636H95.9972V27Z" fill="white"/>
</svg>
